<mxfile host="app.diagrams.net" modified="2020-12-21T02:30:14.826Z" agent="5.0 (Windows NT 10.0; Win64; x64) AppleWebKit/537.36 (KHTML, like Gecko) Chrome/87.0.4280.88 Safari/537.36" etag="Y8ML9W9gV9wqzZ0CqaAZ" version="14.0.1" type="github">
  <diagram id="DH4ZBrfv-nu3bWM3k9Zq" name="Page-1">
    <mxGraphModel dx="2222" dy="1162" grid="1" gridSize="10" guides="1" tooltips="1" connect="1" arrows="1" fold="1" page="0" pageScale="1" pageWidth="850" pageHeight="1100" math="0" shadow="0">
      <root>
        <mxCell id="0" />
        <mxCell id="1" parent="0" />
        <mxCell id="1Jf-qRpHlxnTLbiZgQQL-3" value="&lt;font style=&quot;font-size: 19px&quot;&gt;old kernel in the memory&lt;/font&gt;" style="rounded=1;whiteSpace=wrap;html=1;fillColor=#fff2cc;strokeColor=#d6b656;" vertex="1" parent="1">
          <mxGeometry x="-440" y="40" width="680" height="40" as="geometry" />
        </mxCell>
        <mxCell id="1Jf-qRpHlxnTLbiZgQQL-4" value="&lt;font style=&quot;font-size: 19px&quot;&gt;new kernel in the memory&lt;/font&gt;" style="rounded=1;whiteSpace=wrap;html=1;fillColor=#e1d5e7;strokeColor=#9673a6;" vertex="1" parent="1">
          <mxGeometry x="240" y="40" width="360" height="40" as="geometry" />
        </mxCell>
        <mxCell id="1Jf-qRpHlxnTLbiZgQQL-5" value="" style="endArrow=classic;html=1;strokeWidth=2;" edge="1" parent="1">
          <mxGeometry width="50" height="50" relative="1" as="geometry">
            <mxPoint x="-280" y="40" as="sourcePoint" />
            <mxPoint x="-280" y="-80" as="targetPoint" />
          </mxGeometry>
        </mxCell>
        <mxCell id="1Jf-qRpHlxnTLbiZgQQL-7" value="" style="endArrow=classic;html=1;strokeWidth=2;" edge="1" parent="1">
          <mxGeometry width="50" height="50" relative="1" as="geometry">
            <mxPoint x="600.8200000000002" y="40" as="sourcePoint" />
            <mxPoint x="601" y="-80" as="targetPoint" />
          </mxGeometry>
        </mxCell>
        <mxCell id="1Jf-qRpHlxnTLbiZgQQL-8" value="" style="endArrow=classic;html=1;strokeWidth=2;" edge="1" parent="1">
          <mxGeometry width="50" height="50" relative="1" as="geometry">
            <mxPoint x="322.00000000000017" y="40" as="sourcePoint" />
            <mxPoint x="322" y="-80" as="targetPoint" />
          </mxGeometry>
        </mxCell>
        <mxCell id="1Jf-qRpHlxnTLbiZgQQL-10" value="&lt;font style=&quot;font-size: 19px&quot;&gt;vuf installation&lt;/font&gt;" style="rounded=1;whiteSpace=wrap;html=1;fillColor=#dae8fc;strokeColor=#6c8ebf;" vertex="1" parent="1">
          <mxGeometry x="-280" width="240" height="40" as="geometry" />
        </mxCell>
        <mxCell id="1Jf-qRpHlxnTLbiZgQQL-13" value="&lt;font style=&quot;font-size: 18px&quot; color=&quot;#ff3333&quot;&gt;remove old kernel&lt;/font&gt;" style="rounded=1;whiteSpace=wrap;html=1;strokeColor=none;fillColor=none;" vertex="1" parent="1">
          <mxGeometry x="-440" y="-118" width="160" height="49" as="geometry" />
        </mxCell>
        <mxCell id="1Jf-qRpHlxnTLbiZgQQL-14" value="&lt;font style=&quot;font-size: 18px&quot;&gt;1st reboot&lt;/font&gt;" style="rounded=1;whiteSpace=wrap;html=1;strokeColor=none;fillColor=none;" vertex="1" parent="1">
          <mxGeometry x="160" y="-158" width="150" height="29" as="geometry" />
        </mxCell>
        <mxCell id="1Jf-qRpHlxnTLbiZgQQL-15" value="&lt;font style=&quot;font-size: 18px&quot;&gt;upgrade complete&lt;/font&gt;" style="rounded=1;whiteSpace=wrap;html=1;strokeColor=none;fillColor=none;" vertex="1" parent="1">
          <mxGeometry x="520" y="-129" width="150" height="60" as="geometry" />
        </mxCell>
        <mxCell id="1Jf-qRpHlxnTLbiZgQQL-16" value="&lt;font style=&quot;font-size: 19px&quot;&gt;kdump is not available&lt;/font&gt;" style="rounded=1;whiteSpace=wrap;html=1;fillColor=#f5f5f5;strokeColor=#666666;fontColor=#333333;strokeWidth=2;sketch=0;" vertex="1" parent="1">
          <mxGeometry x="-280" y="-40" width="560" height="40" as="geometry" />
        </mxCell>
        <mxCell id="1Jf-qRpHlxnTLbiZgQQL-19" value="&lt;font style=&quot;font-size: 18px&quot;&gt;after booting&lt;/font&gt;" style="rounded=1;whiteSpace=wrap;html=1;strokeColor=none;fillColor=none;" vertex="1" parent="1">
          <mxGeometry x="310" y="-113.5" width="120" height="29" as="geometry" />
        </mxCell>
        <mxCell id="1Jf-qRpHlxnTLbiZgQQL-20" value="&lt;font style=&quot;font-size: 19px&quot;&gt;old kernel in disk&lt;/font&gt;" style="rounded=1;whiteSpace=wrap;html=1;fillColor=#d5e8d4;strokeColor=#82b366;" vertex="1" parent="1">
          <mxGeometry x="-440" y="80" width="160" height="40" as="geometry" />
        </mxCell>
        <mxCell id="1Jf-qRpHlxnTLbiZgQQL-21" value="&lt;font style=&quot;font-size: 19px&quot;&gt;no kernel in disk&lt;/font&gt;" style="rounded=1;whiteSpace=wrap;html=1;fillColor=#f8cecc;strokeColor=#b85450;" vertex="1" parent="1">
          <mxGeometry x="-280" y="80" width="160" height="40" as="geometry" />
        </mxCell>
        <mxCell id="1Jf-qRpHlxnTLbiZgQQL-22" value="&lt;font style=&quot;font-size: 19px&quot;&gt;new kernel in disk&lt;/font&gt;" style="rounded=1;whiteSpace=wrap;html=1;fillColor=#d5e8d4;strokeColor=#82b366;" vertex="1" parent="1">
          <mxGeometry x="-120" y="80" width="720" height="40" as="geometry" />
        </mxCell>
        <mxCell id="1Jf-qRpHlxnTLbiZgQQL-29" value="&lt;font style=&quot;font-size: 18px&quot;&gt;shutting&lt;br&gt;down&lt;/font&gt;" style="rounded=1;whiteSpace=wrap;html=1;strokeColor=none;fillColor=none;" vertex="1" parent="1">
          <mxGeometry x="160" y="-81" width="85" height="40.75" as="geometry" />
        </mxCell>
        <mxCell id="1Jf-qRpHlxnTLbiZgQQL-30" value="&lt;font style=&quot;font-size: 18px&quot;&gt;booting&lt;/font&gt;" style="rounded=1;whiteSpace=wrap;html=1;strokeColor=none;fillColor=none;" vertex="1" parent="1">
          <mxGeometry x="242.5" y="-81" width="70" height="41" as="geometry" />
        </mxCell>
        <mxCell id="1Jf-qRpHlxnTLbiZgQQL-6" value="" style="endArrow=classic;html=1;strokeWidth=2;" edge="1" parent="1">
          <mxGeometry width="50" height="50" relative="1" as="geometry">
            <mxPoint x="160" y="-40" as="sourcePoint" />
            <mxPoint x="160.18" y="-80" as="targetPoint" />
          </mxGeometry>
        </mxCell>
        <mxCell id="1Jf-qRpHlxnTLbiZgQQL-32" value="" style="endArrow=none;html=1;strokeWidth=2;exitX=0.883;exitY=0.008;exitDx=0;exitDy=0;exitPerimeter=0;" edge="1" parent="1" source="1Jf-qRpHlxnTLbiZgQQL-3">
          <mxGeometry width="50" height="50" relative="1" as="geometry">
            <mxPoint x="140" y="30" as="sourcePoint" />
            <mxPoint x="160" y="2" as="targetPoint" />
          </mxGeometry>
        </mxCell>
        <mxCell id="1Jf-qRpHlxnTLbiZgQQL-33" value="" style="endArrow=classic;html=1;strokeWidth=2;" edge="1" parent="1">
          <mxGeometry width="50" height="50" relative="1" as="geometry">
            <mxPoint x="240" y="-40" as="sourcePoint" />
            <mxPoint x="240.18000000000006" y="-80" as="targetPoint" />
          </mxGeometry>
        </mxCell>
        <mxCell id="1Jf-qRpHlxnTLbiZgQQL-34" value="" style="endArrow=none;html=1;strokeWidth=2;exitX=1;exitY=0;exitDx=0;exitDy=0;entryX=0.733;entryY=1.043;entryDx=0;entryDy=0;entryPerimeter=0;" edge="1" parent="1">
          <mxGeometry width="50" height="50" relative="1" as="geometry">
            <mxPoint x="240" y="40" as="sourcePoint" />
            <mxPoint x="239.79999999999995" y="1.7200000000000273" as="targetPoint" />
          </mxGeometry>
        </mxCell>
        <mxCell id="1Jf-qRpHlxnTLbiZgQQL-35" value="&lt;font style=&quot;font-size: 19px&quot;&gt;kdump is available&lt;/font&gt;" style="rounded=1;whiteSpace=wrap;html=1;fillColor=#d5e8d4;strokeColor=#82b366;strokeWidth=2;shadow=0;sketch=0;" vertex="1" parent="1">
          <mxGeometry x="280" y="-40" width="320" height="40" as="geometry" />
        </mxCell>
        <mxCell id="1Jf-qRpHlxnTLbiZgQQL-37" value="&lt;font style=&quot;font-size: 19px&quot;&gt;old kernel in the memory&lt;/font&gt;" style="rounded=1;whiteSpace=wrap;html=1;fillColor=#fff2cc;strokeColor=#d6b656;" vertex="1" parent="1">
          <mxGeometry x="-440" y="358" width="680" height="40" as="geometry" />
        </mxCell>
        <mxCell id="1Jf-qRpHlxnTLbiZgQQL-38" value="&lt;font style=&quot;font-size: 19px&quot;&gt;new kernel in the memory&lt;/font&gt;" style="rounded=1;whiteSpace=wrap;html=1;fillColor=#e1d5e7;strokeColor=#9673a6;" vertex="1" parent="1">
          <mxGeometry x="240" y="358" width="360" height="40" as="geometry" />
        </mxCell>
        <mxCell id="1Jf-qRpHlxnTLbiZgQQL-40" value="" style="endArrow=classic;html=1;strokeWidth=2;" edge="1" parent="1">
          <mxGeometry width="50" height="50" relative="1" as="geometry">
            <mxPoint x="600.8200000000002" y="358" as="sourcePoint" />
            <mxPoint x="600.9999999999995" y="238" as="targetPoint" />
          </mxGeometry>
        </mxCell>
        <mxCell id="1Jf-qRpHlxnTLbiZgQQL-41" value="" style="endArrow=classic;html=1;strokeWidth=2;" edge="1" parent="1">
          <mxGeometry width="50" height="50" relative="1" as="geometry">
            <mxPoint x="322" y="358" as="sourcePoint" />
            <mxPoint x="322" y="238" as="targetPoint" />
          </mxGeometry>
        </mxCell>
        <mxCell id="1Jf-qRpHlxnTLbiZgQQL-42" value="&lt;font style=&quot;font-size: 19px&quot;&gt;vuf installation&lt;/font&gt;" style="rounded=1;whiteSpace=wrap;html=1;fillColor=#dae8fc;strokeColor=#6c8ebf;" vertex="1" parent="1">
          <mxGeometry x="-280" y="318" width="240" height="40" as="geometry" />
        </mxCell>
        <mxCell id="1Jf-qRpHlxnTLbiZgQQL-43" value="&lt;font style=&quot;font-size: 18px&quot; color=&quot;#ff3333&quot;&gt;remove old kernel&lt;/font&gt;" style="rounded=1;whiteSpace=wrap;html=1;strokeColor=none;fillColor=none;" vertex="1" parent="1">
          <mxGeometry x="320" y="313.5" width="160" height="49" as="geometry" />
        </mxCell>
        <mxCell id="1Jf-qRpHlxnTLbiZgQQL-44" value="&lt;font style=&quot;font-size: 18px&quot;&gt;1st reboot&lt;/font&gt;" style="rounded=1;whiteSpace=wrap;html=1;strokeColor=none;fillColor=none;" vertex="1" parent="1">
          <mxGeometry x="160" y="171" width="150" height="29" as="geometry" />
        </mxCell>
        <mxCell id="1Jf-qRpHlxnTLbiZgQQL-45" value="&lt;font style=&quot;font-size: 18px&quot;&gt;upgrade complete&lt;/font&gt;" style="rounded=1;whiteSpace=wrap;html=1;strokeColor=none;fillColor=none;" vertex="1" parent="1">
          <mxGeometry x="520" y="189" width="150" height="60" as="geometry" />
        </mxCell>
        <mxCell id="1Jf-qRpHlxnTLbiZgQQL-46" value="&lt;font style=&quot;font-size: 19px&quot;&gt;kdump is NA&lt;/font&gt;" style="rounded=1;whiteSpace=wrap;html=1;fillColor=#f5f5f5;strokeColor=#666666;fontColor=#333333;strokeWidth=2;sketch=0;" vertex="1" parent="1">
          <mxGeometry x="-170" y="278" width="130" height="40" as="geometry" />
        </mxCell>
        <mxCell id="1Jf-qRpHlxnTLbiZgQQL-47" value="&lt;font style=&quot;font-size: 18px&quot;&gt;after booting&lt;/font&gt;" style="rounded=1;whiteSpace=wrap;html=1;strokeColor=none;fillColor=none;" vertex="1" parent="1">
          <mxGeometry x="310" y="204.5" width="120" height="29" as="geometry" />
        </mxCell>
        <mxCell id="1Jf-qRpHlxnTLbiZgQQL-48" value="&lt;font style=&quot;font-size: 19px&quot;&gt;old kernel in disk&lt;/font&gt;" style="rounded=1;whiteSpace=wrap;html=1;fillColor=#d5e8d4;strokeColor=#82b366;" vertex="1" parent="1">
          <mxGeometry x="-440" y="398" width="320" height="40" as="geometry" />
        </mxCell>
        <mxCell id="1Jf-qRpHlxnTLbiZgQQL-49" value="&lt;font style=&quot;font-size: 19px&quot;&gt;old/new kernel in disk&lt;/font&gt;" style="rounded=1;whiteSpace=wrap;html=1;fillColor=#dae8fc;strokeColor=#6c8ebf;" vertex="1" parent="1">
          <mxGeometry x="-40" y="398" width="360" height="40" as="geometry" />
        </mxCell>
        <mxCell id="1Jf-qRpHlxnTLbiZgQQL-50" value="&lt;font style=&quot;font-size: 19px&quot;&gt;new kernel in disk&lt;/font&gt;" style="rounded=1;whiteSpace=wrap;html=1;fillColor=#d5e8d4;strokeColor=#82b366;" vertex="1" parent="1">
          <mxGeometry x="320" y="398" width="280" height="40" as="geometry" />
        </mxCell>
        <mxCell id="1Jf-qRpHlxnTLbiZgQQL-52" value="&lt;font style=&quot;font-size: 18px&quot;&gt;shutting&lt;br&gt;down&lt;/font&gt;" style="rounded=1;whiteSpace=wrap;html=1;strokeColor=none;fillColor=none;" vertex="1" parent="1">
          <mxGeometry x="160" y="237" width="85" height="40.75" as="geometry" />
        </mxCell>
        <mxCell id="1Jf-qRpHlxnTLbiZgQQL-53" value="&lt;font style=&quot;font-size: 18px&quot;&gt;booting&lt;/font&gt;" style="rounded=1;whiteSpace=wrap;html=1;strokeColor=none;fillColor=none;" vertex="1" parent="1">
          <mxGeometry x="242.5" y="237" width="70" height="41" as="geometry" />
        </mxCell>
        <mxCell id="1Jf-qRpHlxnTLbiZgQQL-54" value="" style="endArrow=classic;html=1;strokeWidth=2;" edge="1" parent="1">
          <mxGeometry width="50" height="50" relative="1" as="geometry">
            <mxPoint x="160" y="278" as="sourcePoint" />
            <mxPoint x="160.17999999999938" y="238" as="targetPoint" />
          </mxGeometry>
        </mxCell>
        <mxCell id="1Jf-qRpHlxnTLbiZgQQL-56" value="" style="endArrow=classic;html=1;strokeWidth=2;" edge="1" parent="1">
          <mxGeometry width="50" height="50" relative="1" as="geometry">
            <mxPoint x="240" y="278" as="sourcePoint" />
            <mxPoint x="240.1800000000003" y="238" as="targetPoint" />
          </mxGeometry>
        </mxCell>
        <mxCell id="1Jf-qRpHlxnTLbiZgQQL-57" value="" style="endArrow=none;html=1;strokeWidth=2;exitX=1;exitY=0;exitDx=0;exitDy=0;entryX=0.733;entryY=1.043;entryDx=0;entryDy=0;entryPerimeter=0;" edge="1" parent="1">
          <mxGeometry width="50" height="50" relative="1" as="geometry">
            <mxPoint x="240" y="358" as="sourcePoint" />
            <mxPoint x="239.80000000000018" y="319.72" as="targetPoint" />
          </mxGeometry>
        </mxCell>
        <mxCell id="1Jf-qRpHlxnTLbiZgQQL-58" value="&lt;font style=&quot;font-size: 19px&quot;&gt;kdump is available&lt;/font&gt;" style="rounded=1;whiteSpace=wrap;html=1;fillColor=#d5e8d4;strokeColor=#82b366;strokeWidth=2;shadow=0;sketch=0;" vertex="1" parent="1">
          <mxGeometry x="280" y="278" width="320" height="40" as="geometry" />
        </mxCell>
        <mxCell id="1Jf-qRpHlxnTLbiZgQQL-59" value="&lt;font style=&quot;font-size: 19px&quot;&gt;kdump is available&lt;/font&gt;" style="rounded=1;whiteSpace=wrap;html=1;fillColor=#d5e8d4;strokeColor=#82b366;strokeWidth=2;shadow=0;sketch=0;" vertex="1" parent="1">
          <mxGeometry x="-440" y="-40" width="160" height="40" as="geometry" />
        </mxCell>
        <mxCell id="1Jf-qRpHlxnTLbiZgQQL-60" value="&lt;font style=&quot;font-size: 19px&quot;&gt;kdump is available&lt;/font&gt;" style="rounded=1;whiteSpace=wrap;html=1;fillColor=#d5e8d4;strokeColor=#82b366;strokeWidth=2;shadow=0;sketch=0;" vertex="1" parent="1">
          <mxGeometry x="-440" y="278" width="270" height="40" as="geometry" />
        </mxCell>
        <mxCell id="1Jf-qRpHlxnTLbiZgQQL-61" value="&lt;font style=&quot;font-size: 19px&quot;&gt;kdump is available&lt;/font&gt;" style="rounded=1;whiteSpace=wrap;html=1;fillColor=#d5e8d4;strokeColor=#82b366;strokeWidth=2;shadow=0;sketch=0;" vertex="1" parent="1">
          <mxGeometry x="-40" y="277.75" width="280" height="40" as="geometry" />
        </mxCell>
        <mxCell id="1Jf-qRpHlxnTLbiZgQQL-62" value="&lt;font style=&quot;font-size: 19px&quot;&gt;NA&lt;/font&gt;" style="rounded=1;whiteSpace=wrap;html=1;fillColor=#f5f5f5;strokeColor=#666666;fontColor=#333333;strokeWidth=2;sketch=0;" vertex="1" parent="1">
          <mxGeometry x="242.5" y="278" width="37.5" height="40" as="geometry" />
        </mxCell>
        <mxCell id="1Jf-qRpHlxnTLbiZgQQL-63" value="" style="endArrow=none;html=1;strokeWidth=2;exitX=0.883;exitY=0.008;exitDx=0;exitDy=0;exitPerimeter=0;" edge="1" parent="1">
          <mxGeometry width="50" height="50" relative="1" as="geometry">
            <mxPoint x="159.96000000000052" y="357.16000000000014" as="sourcePoint" />
            <mxPoint x="159.52" y="318.84" as="targetPoint" />
          </mxGeometry>
        </mxCell>
        <mxCell id="1Jf-qRpHlxnTLbiZgQQL-64" value="&lt;font style=&quot;font-size: 19px&quot;&gt;new kernel&lt;/font&gt;" style="rounded=1;whiteSpace=wrap;html=1;fillColor=#f8cecc;strokeColor=#b85450;" vertex="1" parent="1">
          <mxGeometry x="-120" y="398" width="80" height="40" as="geometry" />
        </mxCell>
      </root>
    </mxGraphModel>
  </diagram>
</mxfile>
